# xmcd
#
# Track frame offsets:
#	150
#	17795
#	34442
#	56060
#	69510
#	87867
#	96762
#	118192
#	139980
#	163282
#	182267
#	199245
#
# Disc length: 2797 seconds
#
# Revision: 2
# Processed by: cddbd v1.4PL0 Copyright (c) Steve Scherf et al.
# Submitted via: audiograbber 1.81.03
#
DISCID=ad0aeb0c
DTITLE=Little Whitt and Big Bo - Moody Swamp Blues
DYEAR=1995
DGENRE=Blues
TTITLE0=Walking Blues
TTITLE1=Can't Be Satisfied
TTITLE2=Mean Old World
TTITLE3=Shady Grove
TTITLE4=Overseas Blues
TTITLE5=Moody Swamp Blues
TTITLE6=Silver-Tailed Bird
TTITLE7=The Burning
TTITLE8=I Got A Woman
TTITLE9=You Go Your Way
TTITLE10=Sweet Home Chicago
TTITLE11=Two Trains Running
EXTD=
EXTT0=
EXTT1=
EXTT2=
EXTT3=
EXTT4=
EXTT5=
EXTT6=
EXTT7=
EXTT8=
EXTT9=
EXTT10=
EXTT11=
PLAYORDER=
